<svg xmlns="http://www.w3.org/2000/svg" width="24" height="24" viewBox="0 0 24 24">
  <defs>
    <style>
      .cls-1 {
        fill: #fff;
      }
    </style>
  </defs>
  <g id="Group_40341" data-name="Group 40341" transform="translate(-5595 -1542)">
    <g id="dashboard" transform="translate(5595 1542)">
      <path id="Path_18944" data-name="Path 18944" class="cls-1" d="M9.25,0H1.75A1.752,1.752,0,0,0,0,1.75v4.5A1.752,1.752,0,0,0,1.75,8h7.5A1.752,1.752,0,0,0,11,6.25V1.75A1.752,1.752,0,0,0,9.25,0Zm0,0"/>
      <path id="Path_18945" data-name="Path 18945" class="cls-1" d="M9.25,213.332H1.75A1.752,1.752,0,0,0,0,215.082v10.5a1.752,1.752,0,0,0,1.75,1.75h7.5a1.752,1.752,0,0,0,1.75-1.75v-10.5A1.752,1.752,0,0,0,9.25,213.332Zm0,0" transform="translate(0 -203.332)"/>
      <path id="Path_18946" data-name="Path 18946" class="cls-1" d="M286.582,341.332h-7.5a1.752,1.752,0,0,0-1.75,1.75v4.5a1.752,1.752,0,0,0,1.75,1.75h7.5a1.752,1.752,0,0,0,1.75-1.75v-4.5A1.752,1.752,0,0,0,286.582,341.332Zm0,0" transform="translate(-264.332 -325.332)"/>
      <path id="Path_18947" data-name="Path 18947" class="cls-1" d="M286.582,0h-7.5a1.752,1.752,0,0,0-1.75,1.75v10.5a1.752,1.752,0,0,0,1.75,1.75h7.5a1.752,1.752,0,0,0,1.75-1.75V1.75A1.752,1.752,0,0,0,286.582,0Zm0,0" transform="translate(-264.332)"/>
    </g>
  </g>
</svg>
